<mxfile host="app.diagrams.net" modified="2021-09-20T09:17:32.103Z" agent="5.0 (Macintosh; Intel Mac OS X 10_15_7) AppleWebKit/537.36 (KHTML, like Gecko) Chrome/93.0.4577.82 Safari/537.36" etag="q9L6EimpElO5W6nWm9r0" version="15.2.9" type="github">
  <diagram id="C5RBs43oDa-KdzZeNtuy" name="Page-1">
    <mxGraphModel dx="946" dy="614" grid="1" gridSize="10" guides="1" tooltips="1" connect="1" arrows="1" fold="1" page="1" pageScale="1" pageWidth="827" pageHeight="1169" math="0" shadow="0">
      <root>
        <mxCell id="WIyWlLk6GJQsqaUBKTNV-0" />
        <mxCell id="WIyWlLk6GJQsqaUBKTNV-1" parent="WIyWlLk6GJQsqaUBKTNV-0" />
        <mxCell id="FJXHi4cXoQYCO2ahBdmP-2" style="edgeStyle=none;rounded=0;orthogonalLoop=1;jettySize=auto;html=1;fontFamily=Helvetica;" edge="1" parent="WIyWlLk6GJQsqaUBKTNV-1" source="WIyWlLk6GJQsqaUBKTNV-3" target="FJXHi4cXoQYCO2ahBdmP-9">
          <mxGeometry relative="1" as="geometry">
            <mxPoint x="365" y="200" as="targetPoint" />
          </mxGeometry>
        </mxCell>
        <mxCell id="WIyWlLk6GJQsqaUBKTNV-3" value="29分钟循环检测用户签退时间&lt;br&gt;获得sign_time、signout_time" style="rounded=1;whiteSpace=wrap;html=1;fontSize=12;glass=0;strokeWidth=1;shadow=0;" parent="WIyWlLk6GJQsqaUBKTNV-1" vertex="1">
          <mxGeometry x="275" y="30" width="180" height="80" as="geometry" />
        </mxCell>
        <mxCell id="FJXHi4cXoQYCO2ahBdmP-6" value="" style="edgeStyle=none;rounded=0;orthogonalLoop=1;jettySize=auto;html=1;fontFamily=Helvetica;exitX=0.5;exitY=1;exitDx=0;exitDy=0;" edge="1" parent="WIyWlLk6GJQsqaUBKTNV-1" source="FJXHi4cXoQYCO2ahBdmP-9" target="FJXHi4cXoQYCO2ahBdmP-5">
          <mxGeometry relative="1" as="geometry">
            <mxPoint x="365" y="310" as="sourcePoint" />
          </mxGeometry>
        </mxCell>
        <mxCell id="FJXHi4cXoQYCO2ahBdmP-5" value="当到达执行时间后job执行active任务" style="rounded=1;whiteSpace=wrap;html=1;fontFamily=Helvetica;" vertex="1" parent="WIyWlLk6GJQsqaUBKTNV-1">
          <mxGeometry x="271.25" y="490" width="180" height="110" as="geometry" />
        </mxCell>
        <mxCell id="FJXHi4cXoQYCO2ahBdmP-7" value="问题：如果用户在30分钟内更改座位时间呢？&lt;br&gt;比如，脚本在11:29分检测到用户退ob执行退座时间应为11:59分，但在11：30前用户已更改座位从11:30-22:00，也就是说用户不能在11:59分退座&lt;br&gt;而此时job执行退座时间为11:59，巧的是服务器也在11:58分再次检测同时更新job执行退座时间为22:00" style="ellipse;whiteSpace=wrap;html=1;fontFamily=Helvetica;" vertex="1" parent="WIyWlLk6GJQsqaUBKTNV-1">
          <mxGeometry x="550" width="290" height="270" as="geometry" />
        </mxCell>
        <mxCell id="FJXHi4cXoQYCO2ahBdmP-9" value="通过sign_time+29和sign_out_time+29派遣或修改定时任务，进行修改时根据user_id 修改定时任务&lt;br&gt;&lt;span style=&quot;font-family: &amp;#34;pingfang sc&amp;#34; , &amp;#34;microsoft yahei&amp;#34; , &amp;#34;helvetica neue&amp;#34; , &amp;#34;helvetica&amp;#34; , &amp;#34;arial&amp;#34; , sans-serif ; font-size: 13px ; text-align: left ; background-color: rgb(255 , 255 , 255)&quot;&gt;其实修改 job 也可以使用 add_job() 方法，只需要指定参数 replace_existing=True 以及相同的 job_id 即可。&lt;/span&gt;" style="rhombus;whiteSpace=wrap;html=1;fontFamily=Helvetica;" vertex="1" parent="WIyWlLk6GJQsqaUBKTNV-1">
          <mxGeometry x="252.5" y="200" width="217.5" height="190" as="geometry" />
        </mxCell>
      </root>
    </mxGraphModel>
  </diagram>
</mxfile>
